HIERARCHY
ROOT Hips
{
	OFFSET 0.000000 0.000000 0.000000 
	CHANNELS 6 Xposition Yposition Zposition Zrotation Yrotation Xrotation
	JOINT LeftUpLeg
	{
		OFFSET 1.363060 -1.794630 0.839290 
		CHANNELS 3 Zrotation Yrotation Xrotation
		JOINT LeftLeg
		{
			OFFSET 2.448110 -6.726130 0.000000 
			CHANNELS 3 Zrotation Yrotation Xrotation
			JOINT LeftFoot
			{
				OFFSET 2.562200 -7.039590 0.000000 
				CHANNELS 3 Zrotation Yrotation Xrotation
				JOINT LeftToeBase
				{
					OFFSET 0.157640 -0.433110 2.322550 
					CHANNELS 3 Zrotation Yrotation Xrotation
					End Site
					{
						OFFSET 0.000000 0.000000 0.000000 
					}
				}
			}
		}
	}
	JOINT RightUpLeg
	{
		OFFSET -1.305520 -1.794630 0.839290 
		CHANNELS 3 Zrotation Yrotation Xrotation
		JOINT RightLeg
		{
			OFFSET -2.542530 -6.985550 0.000000 
			CHANNELS 3 Zrotation Yrotation Xrotation
			JOINT RightFoot
			{
				OFFSET -2.568260 -7.056230 0.000000 
				CHANNELS 3 Zrotation Yrotation Xrotation
				JOINT RightToeBase
				{
					OFFSET -0.164730 -0.452590 2.363150 
					CHANNELS 3 Zrotation Yrotation Xrotation
					End Site
					{
						OFFSET 0.000000 0.000000 0.000000 
					}
				}
			}
		}
	}
	JOINT Spine
	{
		OFFSET 0.028270 2.035590 -0.193380 
		CHANNELS 3 Zrotation Yrotation Xrotation
		JOINT Spine1
		{
			OFFSET 0.056720 2.048850 -0.042750 
			CHANNELS 3 Zrotation Yrotation Xrotation
			JOINT Neck1
			{
				OFFSET -0.054170 1.746240 0.172020 
				CHANNELS 3 Zrotation Yrotation Xrotation
				JOINT Head
				{
					OFFSET 0.104070 1.761360 -0.123970 
					CHANNELS 3 Zrotation Yrotation Xrotation
					End Site
					{
						OFFSET 0.000000 0.000000 0.000000 
					}
				}
			}
			JOINT LeftArm
			{
				OFFSET 3.362410 1.200890 -0.311210 
				CHANNELS 3 Zrotation Yrotation Xrotation
				JOINT LeftForeArm
				{
					OFFSET 4.983000 -0.000000 -0.000000 
					CHANNELS 3 Zrotation Yrotation Xrotation
					JOINT LeftHand
					{
						OFFSET 3.483560 -0.000000 -0.000000 
						CHANNELS 3 Zrotation Yrotation Xrotation
						JOINT LeftHandIndex1
						{
							OFFSET 0.715260 -0.000000 -0.000000 
							CHANNELS 3 Zrotation Yrotation Xrotation
							End Site
							{
								OFFSET 0.000000 0.000000 0.000000 
							}
						}
					}
				}
			}
			JOINT RightArm
			{
				OFFSET -3.136600 1.374050 -0.404650 
				CHANNELS 3 Zrotation Yrotation Xrotation
				JOINT RightForeArm
				{
					OFFSET -5.241900 -0.000000 -0.000000 
					CHANNELS 3 Zrotation Yrotation Xrotation
					JOINT RightHand
					{
						OFFSET -3.444170 -0.000000 -0.000000 
						CHANNELS 3 Zrotation Yrotation Xrotation
						JOINT RightHandIndex1
						{
							OFFSET -0.622530 -0.000000 -0.000000 
							CHANNELS 3 Zrotation Yrotation Xrotation
							End Site
							{
								OFFSET 0.000000 0.000000 0.000000 
							}
						}
					}
				}
			}
		}
	}
}
MOTION
Frames: 7
Frame Time: 0.041667
-0.532178 18.314863 6.991753 -2.996703 3.707204 0.524981 -12.344217 -8.812380 -2.160504 1.349493 8.044437 25.408072 -0.165231 4.083063 -11.922346 8.837900 -16.702300 -55.528000 19.338267 -4.793328 12.241173 0.493417 0.854988 1.740368 0.481106 -6.996147 -14.419464 -0.307800 3.566800 -9.860900 -5.658172 -1.881136 -2.366008 1.449479 0.306076 -15.390587 9.312978 -7.569806 15.873443 1.915400 -2.415700 9.953100 -68.949048 -54.711576 44.350833 73.421068 -57.358221 -42.077140 -0.039495 0.646987 2.795638 -7.125000 0.000000 0.000000 66.652358 10.851897 57.115086 -110.772107 52.782048 -73.259720 0.688254 0.027455 -5.702511 7.125000 0.000000 0.000000 
-0.545040 18.341865 6.977222 -2.742990 4.064113 0.837510 -12.334165 -9.038966 -2.659262 1.342897 8.053049 25.362029 -0.210223 4.110605 -11.342410 8.842500 -16.705300 -55.543700 19.291491 -5.060656 11.799299 0.494676 0.866311 1.742562 0.548376 -7.234851 -14.173100 -0.321700 3.645800 -10.082200 -6.985498 -2.456300 -2.170924 1.871303 0.108634 -15.720298 9.376671 -7.383684 15.383143 1.955200 -2.351700 9.729100 -69.307442 -53.152115 44.841875 71.694136 -57.238938 -40.600850 -0.053074 0.649298 2.166332 -7.125000 0.000000 0.000000 66.312454 11.012640 56.614905 -114.332200 52.066960 -76.936769 0.484356 0.061018 -6.629992 7.125000 0.000000 0.000000 
-0.558590 18.370929 6.954442 -2.528141 4.403870 1.087744 -12.270505 -9.232828 -3.158974 1.341068 8.069839 25.334965 -0.240991 4.087044 -10.751500 8.857600 -16.715200 -55.596400 19.309769 -5.335518 11.392729 0.497435 0.881448 1.747013 0.606688 -7.477040 -14.039852 -0.324800 3.663100 -10.130700 -8.461839 -2.965431 -1.857894 2.243511 -0.068104 -16.161343 9.434119 -7.238460 14.828536 1.980300 -2.311700 9.479900 -69.671533 -51.273926 45.614976 70.250260 -57.124922 -39.368435 -0.068852 0.649579 1.524242 -7.125000 0.000000 0.000000 66.077347 11.329996 55.820488 -117.569000 51.375285 -80.206208 0.284278 0.109626 -6.712201 7.125000 0.000000 0.000000 
-0.572631 18.400483 6.921353 -2.371686 4.634586 1.346163 -12.175768 -9.393818 -3.731812 1.349140 8.114344 25.372623 -0.289662 4.120233 -10.033638 8.835400 -16.700600 -55.519100 19.386275 -5.509596 10.969805 0.501414 0.895694 1.751201 0.663494 -7.742855 -13.975510 -0.307800 3.566800 -9.860900 -9.804636 -3.407173 -1.801684 2.562412 -0.223947 -16.720067 9.256425 -7.090957 14.491618 1.926800 -2.282400 9.283700 -69.915959 -49.069721 46.573339 68.991663 -57.021769 -38.305448 -0.088449 0.648828 0.992113 -7.125000 0.000000 0.000000 65.804752 11.796942 54.716856 -120.692422 50.658229 -83.280731 0.079825 0.178376 -7.788367 7.125000 0.000000 0.000000 
-0.583530 18.431707 6.873732 -2.177011 4.815445 1.525676 -12.153767 -9.588045 -4.338909 1.367399 8.176877 25.476481 -0.370222 4.286152 -9.249092 8.763800 -16.653300 -55.269700 19.390377 -5.632584 10.541465 0.504912 0.912540 1.755446 0.734165 -8.051731 -13.852280 -0.282300 3.417000 -9.442100 -11.052671 -3.773696 -1.378424 2.850215 -0.357243 -17.472135 9.035769 -6.908137 14.174538 1.858800 -2.238500 9.092400 -70.047217 -46.808616 47.613202 67.807255 -56.906002 -37.301762 -0.111402 0.644765 0.564066 -7.125000 0.000000 0.000000 65.835266 12.559713 53.276745 -122.823235 50.132965 -85.328594 -0.028497 0.219571 -8.125845 7.125000 0.000000 0.000000 
-0.590010 18.458512 6.811284 -1.976662 4.993597 1.592187 -12.151056 -9.791208 -4.964062 1.396306 8.254662 25.640378 -0.432687 4.416775 -8.577026 8.745900 -16.641400 -55.207100 19.356807 -5.763892 10.131560 0.508256 0.934544 1.760414 0.832176 -8.449909 -13.616390 -0.275900 3.378400 -9.334100 -12.355979 -4.033208 -0.412323 3.127116 -0.467330 -18.437593 8.657470 -6.675262 13.743259 1.749500 -2.187700 8.858700 -70.478400 -44.619649 48.757403 66.451087 -56.730645 -36.144359 -0.133585 0.629268 0.580494 -7.125000 0.000000 0.000000 65.208571 13.981297 51.870813 -125.082627 49.583689 -87.452326 -0.129935 0.268617 -8.588025 7.125000 0.000000 0.000000 
-0.593545 18.486201 6.738625 -1.880366 5.126281 1.576533 -12.108984 -9.954428 -5.606921 1.439497 8.338236 25.859338 -0.470637 4.455454 -7.947200 8.796900 -16.675200 -55.385000 19.356567 -5.825613 9.712197 0.512137 0.956948 1.763595 0.947949 -8.922070 -13.341195 -0.282500 3.418500 -9.446000 -13.121926 -4.160490 1.107014 3.245755 -0.567094 -19.573506 8.300413 -6.400464 13.320482 1.653200 -2.116800 8.630700 -70.942939 -42.433001 49.836560 65.222756 -56.552837 -35.079559 -0.162670 0.603442 0.780682 -7.125000 0.000000 0.000000 65.012518 15.608753 50.116356 -126.117556 49.347894 -88.405399 -0.130644 0.279584 -8.410830 7.125000 0.000000 0.000000 
